# xmcd
#
# Track frame offsets:
# 150
# 14278
# 42302
# 57538
# 80074
# 101372
# 116624
# 136415
# 153541
# 167702
# 183918
# 206319
# 226306
# 243511
# 260653
# 275894
# 290812
# 316059
# 339700
#
# Disc length: 4733 seconds
#
#
# Revision: 0
# Processed by: cddbd v1.5.1PL2 Copyright (c) Steve Scherf et al.
# Submitted via: FreeRIP 2.943 
#
DISCID=1b127b13
DTITLE=Kraina Lagodnosci - Kraina Lagodnosci - Trzecia wyprawa
DYEAR=1900
DGENRE=Ballad
TTITLE0=Wolna Grupa Bukowina - Sielanka o domu
TTITLE1=Antonina Krzyszton - Inny swiat
TTITLE2=Grzegorz Turnau - Miedzy cisza a cisza
TTITLE3=Tomasz Olszewski i 3/4 - Zza ciemnych szyb
TTITLE4=Barbara Stepniak-Wilk - O obrotach sfer niebieskich
TTITLE5=Andrzej Garczarek - Do niepierwszej milosci
TTITLE6=Robert Kasprzycki - Miejsca, przedmioty, ksztalty, drzwi
TTITLE7=Mariusz Lubomski - Pociag
TTITLE8=Anna Szalapak - Zaklinanie, czarowanie
TTITLE9=Stare Dobre Malzenstwo - Miejska strona ksiezyca
TTITLE10=Pod Buda - Blues o starych sasiadach
TTITLE11=Jaroslaw Wasik - Po prostu pragne
TTITLE12=Czerwony Tulipan - Czysci jak lza
TTITLE13=Miroslaw Czyzykiewicz - Kocham
TTITLE14=Marek Galazka i zespol Pod Drodze - Bezduszka
TTITLE15=Mikroklimat - Sa slowa
TTITLE16=Raz Dwa Trzy - Pod niebem
TTITLE17=Andrzej Poniedzielski - Chyba juz mozna
TTITLE18=DATA
EXTD=
EXTT0=
EXTT1=
EXTT2=
EXTT3=
EXTT4=
EXTT5=
EXTT6=
EXTT7=
EXTT8=
EXTT9=
EXTT10=
EXTT11=
EXTT12=
EXTT13=
EXTT14=
EXTT15=
EXTT16=
EXTT17=
EXTT18=
PLAYORDER=
